HIERARCHY
ROOT pelvis
{
	OFFSET 0.000000 0.937925 -0.000000
	CHANNELS 6 Xposition Yposition Zposition Xrotation Yrotation Zrotation
	JOINT spine
	{
		OFFSET 0.000000 0.000000 0.000000
		CHANNELS 6 Xposition Yposition Zposition Xrotation Yrotation Zrotation
		JOINT spine.001
		{
			OFFSET 0.000000 0.304644 0.015966
			CHANNELS 3 Xrotation Yrotation Zrotation
			JOINT neck
			{
				OFFSET 0.000000 0.302788 -0.037178
				CHANNELS 6 Xposition Yposition Zposition Xrotation Yrotation Zrotation
				JOINT face
				{
					OFFSET 0.000000 0.239085 -0.004173
					CHANNELS 6 Xposition Yposition Zposition Xrotation Yrotation Zrotation
					End Site
					{
						OFFSET 0.000000 -0.009393 0.033637
					}
				}
			}
			JOINT shoulder.L
			{
				OFFSET 0.000000 0.302788 -0.037178
				CHANNELS 6 Xposition Yposition Zposition Yrotation Xrotation Zrotation
				JOINT upper_arm.L
				{
					OFFSET 0.190409 0.000000 0.000000
					CHANNELS 6 Xposition Yposition Zposition Xrotation Yrotation Zrotation
					JOINT forearm.L
					{
						OFFSET 0.324777 0.001157 -0.000140
						CHANNELS 6 Xposition Yposition Zposition Xrotation Yrotation Zrotation
						End Site
						{
							OFFSET 0.267200 -0.001591 0.004536
						}
					}
				}
			}
			JOINT shoulder.R
			{
				OFFSET 0.000000 0.302788 -0.037178
				CHANNELS 6 Xposition Yposition Zposition Yrotation Xrotation Zrotation
				JOINT upper_arm.R
				{
					OFFSET -0.190409 0.000000 0.000000
					CHANNELS 6 Xposition Yposition Zposition Xrotation Yrotation Zrotation
					JOINT forearm.R
					{
						OFFSET -0.316622 0.001157 -0.000140
						CHANNELS 6 Xposition Yposition Zposition Xrotation Yrotation Zrotation
						End Site
						{
							OFFSET -0.281049 -0.001593 0.004778
						}
					}
				}
			}
		}
	}
	JOINT pelvis.L
	{
		OFFSET 0.000000 0.000000 0.000000
		CHANNELS 6 Xposition Yposition Zposition Yrotation Xrotation Zrotation
		End Site
		{
			OFFSET 0.115127 0.000000 0.000000
		}
	}
	JOINT pelvis.R
	{
		OFFSET 0.000000 0.000000 0.000000
		CHANNELS 6 Xposition Yposition Zposition Yrotation Xrotation Zrotation
		End Site
		{
			OFFSET -0.115127 0.000000 0.000000
		}
	}
	JOINT thigh.L
	{
		OFFSET 0.115127 0.000000 0.000000
		CHANNELS 6 Xposition Yposition Zposition Xrotation Yrotation Zrotation
		JOINT shin.L
		{
			OFFSET 0.022519 -0.429682 0.000000
			CHANNELS 6 Xposition Yposition Zposition Xrotation Yrotation Zrotation
			JOINT foot.L
			{
				OFFSET 0.022219 -0.423959 0.000000
				CHANNELS 6 Xposition Yposition Zposition Xrotation Yrotation Zrotation
				End Site
				{
					OFFSET 0.018503 -0.079221 0.188658
				}
			}
		}
	}
	JOINT thigh.R
	{
		OFFSET -0.115127 0.000000 0.000000
		CHANNELS 6 Xposition Yposition Zposition Xrotation Yrotation Zrotation
		JOINT shin.R
		{
			OFFSET -0.022063 -0.420980 0.000000
			CHANNELS 6 Xposition Yposition Zposition Xrotation Yrotation Zrotation
			JOINT foot.R
			{
				OFFSET -0.022750 -0.434104 0.000000
				CHANNELS 6 Xposition Yposition Zposition Xrotation Yrotation Zrotation
				End Site
				{
					OFFSET -0.019477 -0.083392 0.198591
				}
			}
		}
	}
}
MOTION
Frames: 11
Frame Time: 0.041667
0.011068 -0.019459 0.002600 -0.000000 2.597998 -0.000000 0.000000 -0.000000 -0.000000 -9.727160 -0.155889 1.128664 10.024325 4.758571 -0.585623 -0.000000 0.302788 -0.037178 31.766213 21.074289 -9.643939 -0.000000 0.239085 -0.004173 4.034839 -0.000023 -0.000017 0.000000 0.302788 -0.037178 -0.171802 -0.002100 -1.399518 0.190409 0.000000 0.000000 -2.643398 -3.155474 -79.438959 0.324777 0.001157 -0.000140 -2.486552 -17.489119 -17.212430 0.000000 0.302788 -0.037178 -0.178461 -0.002265 -1.453647 -0.190409 -0.000000 0.000000 -0.640801 0.693515 81.878819 -0.316622 0.001157 -0.000140 -1.964506 16.338169 14.658604 0.000000 0.000000 0.000000 -0.000012 0.000000 0.253597 0.000000 0.000000 0.000000 0.000000 -0.000000 0.253597 0.115125 0.000510 0.000000 4.929049 0.054591 -4.731644 0.022519 -0.429682 0.000000 -0.489563 -0.049975 5.658908 0.022219 -0.423959 0.000000 -5.227947 -1.112878 -0.005146 -0.115125 -0.000509 -0.000000 4.800090 -0.143379 2.580263 -0.022063 -0.420980 0.000000 1.692843 -0.128165 -2.658350 -0.022750 -0.434104 0.000000 -9.704801 -6.856355 -4.552611 
0.013933 -0.018912 0.004495 -0.000000 2.524277 -0.000000 0.000000 0.000000 0.000000 -9.851612 -0.160451 1.152482 10.026129 4.940207 -0.608083 -0.000000 0.302788 -0.037178 32.235047 21.395277 -9.970723 0.000000 0.239085 -0.004173 3.886643 0.000004 0.000009 -0.000000 0.302788 -0.037178 -0.166605 -0.001974 -1.356549 0.190409 -0.000000 -0.000000 -2.693038 -3.223837 -79.297745 0.324777 0.001157 -0.000140 -2.498635 -17.269169 -17.556446 0.000000 0.302788 -0.037178 -0.173270 -0.002131 -1.410679 -0.190409 0.000000 -0.000000 -0.465337 0.494197 81.415807 -0.316622 0.001157 -0.000140 -2.093726 16.668879 15.291158 0.000000 0.000000 0.000000 -0.000023 0.000000 0.209249 -0.000000 0.000000 0.000000 0.000000 -0.000000 0.209279 0.115126 0.000420 0.000000 5.098956 0.048361 -4.913874 0.022519 -0.429682 0.000000 -0.557883 -0.057039 5.675220 0.022219 -0.423959 0.000000 -5.302443 -0.958903 0.074866 -0.115126 -0.000420 0.000000 4.596609 -0.138233 2.556695 -0.022063 -0.420980 0.000000 2.311482 -0.181105 -2.958587 -0.022750 -0.434104 0.000000 -10.076181 -6.735145 -4.556754 
0.016790 -0.018259 0.006350 -0.000000 2.277540 -0.000000 0.000000 0.000000 0.000000 -9.922625 -0.166809 1.192728 10.026306 4.953961 -0.609800 -0.000000 0.302789 -0.037178 32.575208 22.241258 -10.458224 0.000000 0.239085 -0.004173 3.890976 -0.000001 -0.000001 0.000000 0.302789 -0.037178 -0.168691 -0.002023 -1.373661 0.190409 -0.000000 0.000000 -2.720970 -3.259893 -79.262112 0.324777 0.001157 -0.000140 -2.466446 -17.125828 -17.494208 0.000000 0.302789 -0.037178 -0.175358 -0.002183 -1.427791 -0.190409 -0.000000 0.000000 -0.469180 0.501282 81.150905 -0.316622 0.001157 -0.000140 -2.145165 16.800679 15.534512 -0.000000 0.000000 0.000000 0.000021 -0.000000 0.178577 -0.000000 0.000000 0.000000 0.000000 -0.000000 0.178577 0.115126 0.000359 0.000000 5.270654 0.038549 -5.162418 0.022519 -0.429682 0.000000 -0.570908 -0.058729 5.747270 0.022219 -0.423959 0.000000 -5.459257 -0.614915 0.253507 -0.115126 -0.000359 -0.000000 4.395683 -0.135484 2.470853 -0.022063 -0.420980 0.000000 2.870884 -0.229490 -3.138692 -0.022750 -0.434104 0.000000 -10.385072 -6.451734 -4.463796 
0.019229 -0.017611 0.007647 -0.000000 2.041471 -0.000000 0.000000 0.000000 0.000000 -9.931931 -0.174084 1.243981 10.024479 4.783547 -0.588709 -0.000000 0.302789 -0.037178 32.937607 23.496988 -11.216613 0.000000 0.239086 -0.004173 3.761146 -0.000015 -0.000001 0.000000 0.302789 -0.037178 -0.183853 -0.002401 -1.496736 0.190409 -0.000000 0.000000 -2.658623 -3.182470 -79.290122 0.324777 0.001157 -0.000140 -2.437137 -17.244966 -17.140747 0.000000 0.302789 -0.037178 -0.190473 -0.002576 -1.550828 -0.190409 -0.000000 0.000000 -0.715051 0.788264 81.305377 -0.316622 0.001157 -0.000140 -2.065006 16.571378 15.179262 0.000000 0.000000 0.000000 0.000047 -0.000000 0.159770 0.000000 0.000000 0.000000 0.000000 -0.000000 0.159770 0.115126 0.000321 0.000000 5.374491 0.027294 -5.418462 0.022519 -0.429682 0.000000 -0.532385 -0.055318 5.864659 0.022219 -0.423959 0.000000 -5.638305 -0.263646 0.438906 -0.115126 -0.000321 -0.000000 4.219686 -0.134579 2.348286 -0.022063 -0.420980 0.000000 3.313652 -0.266166 -3.182157 -0.022750 -0.434104 0.000000 -10.557449 -6.238816 -4.382279 
0.021139 -0.017113 0.008538 -0.000000 1.960205 -0.000000 0.000000 -0.000000 -0.000000 -9.943207 -0.181939 1.299203 10.022325 4.561532 -0.561278 -0.000000 0.302788 -0.037178 33.464597 24.526499 -12.122718 0.000000 0.239085 -0.004173 3.369093 0.000013 0.000006 -0.000000 0.302789 -0.037178 -0.206117 -0.003021 -1.678619 0.190409 -0.000000 -0.000000 -2.502701 -2.989008 -79.362604 0.324777 0.001157 -0.000140 -2.431027 -17.582517 -16.712397 -0.000000 0.302788 -0.037178 -0.212745 -0.003218 -1.732713 -0.190409 0.000000 0.000000 -1.061857 1.185097 81.765465 -0.316622 0.001157 -0.000140 -1.904944 16.101124 14.446569 -0.000000 0.000000 0.000000 0.000010 -0.000000 0.144582 -0.000000 0.000000 0.000000 0.000000 -0.000000 0.144611 0.115126 0.000291 0.000000 5.320784 0.019144 -5.587965 0.022519 -0.429682 0.000000 -0.296202 -0.030902 5.912252 0.022219 -0.423959 0.000000 -5.876513 -0.051649 0.564705 -0.115126 -0.000291 -0.000000 4.115477 -0.135799 2.221841 -0.022063 -0.420980 0.000000 3.617126 -0.289015 -3.133622 -0.022750 -0.434104 0.000000 -10.607760 -6.286299 -4.416153 
0.023037 -0.016727 0.010157 -0.000000 1.917732 -0.000000 0.000000 0.000000 0.000000 -10.037049 -0.193629 1.374476 10.022167 4.548926 -0.559719 -0.000000 0.302788 -0.037178 34.054022 24.890499 -12.912890 0.000000 0.239085 -0.004173 2.965981 -0.000002 0.000005 -0.000000 0.302788 -0.037178 -0.224828 -0.003594 -1.831188 0.190409 -0.000000 -0.000000 -2.309493 -2.748279 -79.487433 0.324777 0.001157 -0.000140 -2.434886 -17.898261 -16.394136 0.000000 0.302788 -0.037178 -0.231491 -0.003808 -1.885317 -0.190409 0.000000 0.000000 -1.249807 1.393018 82.186833 -0.316622 0.001157 -0.000140 -1.769191 15.687343 13.799352 0.000000 0.000000 0.000000 -0.000060 0.000000 0.134437 0.000000 0.000000 0.000000 0.000000 -0.000000 0.134466 0.115126 0.000270 0.000000 5.083340 0.016213 -5.634713 0.022519 -0.429682 0.000000 0.379350 0.038991 5.736605 0.022219 -0.423959 0.000000 -6.372243 0.113544 0.695797 -0.115126 -0.000270 0.000000 4.180348 -0.144366 2.046009 -0.022063 -0.420980 0.000000 3.697857 -0.291083 -2.998411 -0.022750 -0.434104 0.000000 -10.596368 -6.468748 -4.510366 
0.025358 -0.016328 0.013210 -0.000000 1.723093 -0.000000 0.000000 0.000000 -0.000000 -10.208219 -0.209474 1.471026 10.025489 4.870270 -0.599436 -0.000000 0.302789 -0.037178 34.437763 24.743578 -13.407912 -0.000000 0.239085 -0.004173 2.898558 -0.000015 -0.000000 0.000000 0.302789 -0.037178 -0.235073 -0.003929 -1.915306 0.190409 -0.000000 0.000000 -2.133234 -2.527512 -79.646453 0.324777 0.001157 -0.000140 -2.436004 -18.051316 -16.239027 0.000000 0.302788 -0.037178 -0.241756 -0.004151 -1.969434 -0.190409 -0.000000 -0.000000 -1.118560 1.238411 82.319851 -0.316622 0.001157 -0.000140 -1.729400 15.583780 13.583257 0.000000 0.000000 0.000000 0.000024 -0.000000 0.130195 0.000000 0.000000 0.000000 0.000000 -0.000000 0.130195 0.115126 0.000262 0.000000 4.745974 0.015806 -5.618655 0.022519 -0.429682 0.000000 1.477449 0.147010 5.363817 0.022219 -0.423959 0.000000 -7.171853 0.381479 0.912106 -0.115126 -0.000262 0.000000 4.437702 -0.164324 1.760803 -0.022063 -0.420980 0.000000 3.522385 -0.269551 -2.749246 -0.022750 -0.434104 0.000000 -10.563365 -6.518863 -4.530879 
0.027739 -0.016001 0.016791 -0.000000 1.409779 -0.000000 0.000000 -0.000000 0.000000 -10.362408 -0.221504 1.540634 10.031063 5.371509 -0.661478 -0.000000 0.302789 -0.037178 34.467453 24.491887 -13.584475 0.000000 0.239085 -0.004173 3.182375 -0.000015 0.000005 0.000000 0.302789 -0.037178 -0.237845 -0.004020 -1.937483 0.190409 0.000000 -0.000000 -1.987717 -2.345168 -79.800201 0.324777 0.001157 -0.000140 -2.453320 -18.227186 -16.173463 0.000000 0.302789 -0.037178 -0.244492 -0.004251 -1.991573 -0.190409 0.000000 -0.000000 -0.751269 0.817286 82.176758 -0.316622 0.001157 -0.000140 -1.790364 15.817577 13.833817 -0.000000 0.000000 0.000000 0.000062 -0.000000 0.120821 0.000000 0.000000 0.000000 0.000000 -0.000000 0.120821 0.115126 0.000243 0.000000 4.446275 0.013636 -5.648774 0.022519 -0.429682 0.000000 2.587101 0.250882 5.075896 0.022219 -0.423959 0.000000 -7.960238 0.698394 1.156906 -0.115126 -0.000243 0.000000 4.729793 -0.189932 1.403461 -0.022063 -0.420980 0.000000 3.281682 -0.241449 -2.413466 -0.022750 -0.434104 0.000000 -10.535677 -6.381690 -4.453705 
0.029490 -0.016006 0.019413 -0.000000 1.162412 -0.000000 -0.000000 0.000000 0.000000 -10.434936 -0.222115 1.537974 10.036386 5.816242 -0.716622 0.000000 0.302789 -0.037178 34.264682 24.341010 -13.530358 -0.000000 0.239085 -0.004173 3.495759 0.000006 -0.000003 -0.000000 0.302789 -0.037178 -0.234251 -0.003901 -1.908019 0.190409 -0.000000 -0.000000 -1.861415 -2.188042 -79.925180 0.324777 0.001157 -0.000140 -2.520727 -18.723942 -16.117305 0.000000 0.302789 -0.037178 -0.240904 -0.004127 -1.962077 -0.190409 -0.000000 -0.000000 -0.368580 0.377077 81.918133 -0.316622 0.001157 -0.000140 -1.906974 16.216025 14.340453 -0.000000 -0.000000 0.000000 0.000045 -0.000000 0.098988 -0.000000 0.000000 0.000000 0.000000 -0.000000 0.098988 0.115126 0.000199 0.000000 4.241507 0.008317 -5.775381 0.022519 -0.429682 0.000000 3.340867 0.325196 5.115924 0.022219 -0.423959 0.000000 -8.394290 0.902635 1.309331 -0.115126 -0.000199 -0.000000 4.844406 -0.208154 1.082188 -0.022063 -0.420980 0.000000 3.271561 -0.231421 -2.090204 -0.022750 -0.434104 0.000000 -10.558999 -6.212583 -4.368732 
0.030440 -0.016399 0.020755 -0.000000 1.030378 -0.000000 0.000000 0.000000 0.000000 -10.461503 -0.215016 1.486374 10.040341 6.126970 -0.755196 -0.000000 0.302788 -0.037178 34.091356 24.279022 -13.412858 -0.000000 0.239085 -0.004173 3.561571 0.000001 0.000015 0.000000 0.302789 -0.037178 -0.226527 -0.003646 -1.844744 0.190409 -0.000000 -0.000000 -1.762765 -2.065997 -80.018535 0.324777 0.001157 -0.000140 -2.628035 -19.484733 -16.061794 0.000000 0.302789 -0.037178 -0.233163 -0.003865 -1.898873 -0.190409 0.000000 0.000000 -0.119143 0.088198 81.680491 -0.316622 0.001157 -0.000140 -2.022039 16.594474 14.827577 -0.000000 0.000000 0.000000 0.000000 -0.000000 0.072350 -0.000000 0.000000 0.000000 0.000000 -0.000000 0.072350 0.115126 0.000145 0.000000 4.059317 0.002955 -5.916544 0.022519 -0.429682 0.000000 3.821437 0.379819 5.347933 0.022219 -0.423959 0.000000 -8.504682 0.981605 1.362160 -0.115126 -0.000145 0.000000 4.721740 -0.211853 0.864810 -0.022063 -0.420980 0.000000 3.596562 -0.247766 -1.879049 -0.022750 -0.434104 0.000000 -10.673286 -6.096444 -4.327437 
0.030902 -0.016913 0.021700 -0.000000 0.896208 -0.000000 -0.000000 -0.000000 0.000000 -10.515530 -0.209285 1.441962 10.043625 6.368708 -0.785244 0.000000 0.302789 -0.037178 34.096700 24.294276 -13.388422 0.000000 0.239085 -0.004173 3.393403 -0.000002 0.000013 -0.000000 0.302789 -0.037177 -0.219224 -0.003410 -1.785003 0.190409 -0.000000 -0.000000 -1.742323 -2.039480 -80.072951 0.324777 0.001157 -0.000140 -2.704516 -20.025160 -16.025883 0.000000 0.302789 -0.037177 -0.225885 -0.003620 -1.839127 -0.190409 -0.000000 0.000000 -0.016371 -0.031572 81.519250 -0.316622 0.001157 -0.000140 -2.100812 16.871568 15.126825 -0.000000 0.000000 0.000000 -0.000045 0.000000 0.049717 -0.000000 0.000000 0.000000 0.000000 -0.000000 0.049717 0.115126 0.000100 0.000000 3.823127 0.001821 -5.945389 0.022519 -0.429682 0.000000 4.331943 0.433364 5.420177 0.022219 -0.423959 0.000000 -8.575993 1.077067 1.419029 -0.115126 -0.000100 0.000000 4.467091 -0.204689 0.755526 -0.022063 -0.420980 0.000000 4.118061 -0.281940 -1.829769 -0.022750 -0.434104 0.000000 -10.874157 -5.958912 -4.289526 
